<mxfile><diagram id="1mcb1jH_JW-JfYHz93MK" name="Page-1"><mxGraphModel dx="2129" dy="1944" grid="1" gridSize="10" guides="1" tooltips="1" connect="1" arrows="1" fold="1" page="1" pageScale="1" pageWidth="827" pageHeight="1169" math="0" shadow="0"><root><mxCell id="0"/><mxCell id="1" parent="0"/><mxCell id="4" value="&lt;h1 style=&quot;text-align: center;&quot;&gt;&lt;span style=&quot;background-color: initial;&quot;&gt;Pancreatic cyst pathways (IPMN)&lt;/span&gt;&lt;/h1&gt;" style="text;html=1;strokeColor=none;fillColor=none;spacing=5;spacingTop=-20;whiteSpace=wrap;overflow=hidden;rounded=0;" vertex="1" parent="1"><mxGeometry x="160" y="-70" width="430" height="50" as="geometry"/></mxCell><mxCell id="10" value="NO" style="edgeStyle=none;html=1;shape=flexArrow;fillColor=#b1ddf0;strokeColor=#10739e;" edge="1" parent="1" source="8" target="9"><mxGeometry relative="1" as="geometry"/></mxCell><mxCell id="13" value="YES" style="edgeStyle=none;shape=flexArrow;html=1;" edge="1" parent="1" source="8" target="12"><mxGeometry relative="1" as="geometry"/></mxCell><mxCell id="8" value="Has patient had optimum imaging (CT/MRI/MRCP)?&lt;br style=&quot;border-color: var(--border-color);&quot;&gt;Is patient safe for resetcion ?" style="ellipse;whiteSpace=wrap;html=1;fillColor=#d5e8d4;strokeColor=#82b366;fontStyle=1;shadow=1;" vertex="1" parent="1"><mxGeometry x="230" y="40" width="290" height="100" as="geometry"/></mxCell><mxCell id="9" value="*Complete baseline imaging&lt;br&gt;*Consider no further Ix If comorbities significant" style="rounded=1;whiteSpace=wrap;html=1;fillColor=#ffe6cc;strokeColor=#d79b00;fontStyle=1;shadow=1;" vertex="1" parent="1"><mxGeometry x="-20" y="50" width="145" height="80" as="geometry"/></mxCell><mxCell id="5JMBHkiXRSv9p0aSp2tF-14" value="NO" style="edgeStyle=none;shape=flexArrow;html=1;fillColor=#b1ddf0;strokeColor=#10739e;" edge="1" parent="1" source="12" target="5JMBHkiXRSv9p0aSp2tF-13"><mxGeometry relative="1" as="geometry"/></mxCell><mxCell id="5JMBHkiXRSv9p0aSp2tF-16" value="YES" style="edgeStyle=none;shape=flexArrow;html=1;entryX=1;entryY=0.25;entryDx=0;entryDy=0;fillColor=#b1ddf0;strokeColor=#10739e;" edge="1" parent="1" source="12" target="5JMBHkiXRSv9p0aSp2tF-15"><mxGeometry relative="1" as="geometry"><mxPoint x="130" y="300" as="targetPoint"/></mxGeometry></mxCell><UserObject label="&amp;nbsp;Any high risk features?&amp;nbsp;" tooltip="HIGH&#9;RISK&#9;Features:&#10;&#9;• Jaundice&#10;• Main&#9;PD &gt;10mm&#10;• Enhancing&#9;nodule&#9;&gt;5mm&#9;within&#9;cyst" id="12"><mxCell style="rhombus;whiteSpace=wrap;html=1;fillColor=#dae8fc;strokeColor=#6c8ebf;fontStyle=1;shadow=1;" vertex="1" parent="1"><mxGeometry x="315" y="220" width="120" height="100" as="geometry"/></mxCell></UserObject><mxCell id="5JMBHkiXRSv9p0aSp2tF-17" value="YES" style="edgeStyle=none;shape=flexArrow;html=1;exitX=0;exitY=0;exitDx=0;exitDy=0;width=12;endSize=4.28;entryX=1;entryY=0.5;entryDx=0;entryDy=0;fillColor=#b1ddf0;strokeColor=#10739e;" edge="1" parent="1" source="5JMBHkiXRSv9p0aSp2tF-13" target="5JMBHkiXRSv9p0aSp2tF-15"><mxGeometry relative="1" as="geometry"><mxPoint x="120" y="330" as="targetPoint"/><Array as="points"><mxPoint x="190" y="350"/></Array></mxGeometry></mxCell><mxCell id="5JMBHkiXRSv9p0aSp2tF-24" value="NO" style="edgeStyle=none;html=1;entryX=0.478;entryY=0.011;entryDx=0;entryDy=0;entryPerimeter=0;shape=flexArrow;fillColor=#b1ddf0;strokeColor=#10739e;" edge="1" parent="1" source="5JMBHkiXRSv9p0aSp2tF-13" target="5JMBHkiXRSv9p0aSp2tF-23"><mxGeometry relative="1" as="geometry"/></mxCell><UserObject label="&amp;nbsp;Any worisome features?&amp;nbsp;" tooltip="Worrisome&#9;Features:&#10;&#9;• Pancreatitis&#9;&#10;• Main&#9;PD&#9;&gt;5mm&#9;&#10;• Mural&#9;nodule/solid&#9;component&#9;&#10;• Thick&#9;cyst&#9;wall&#9;&#10;• Cyst&#9;size&gt;30mm&#9;&#10;• Abrupt&#9;change&#9;in&#9;PD&#9;caliber&#9;&#10;• Cyst&#9;growth&#9;&gt;5mm/&#9;2&#9;years&#9;" id="5JMBHkiXRSv9p0aSp2tF-13"><mxCell style="rhombus;whiteSpace=wrap;html=1;fillColor=#dae8fc;strokeColor=#6c8ebf;fontStyle=1;shadow=1;" vertex="1" parent="1"><mxGeometry x="315" y="400" width="120" height="100" as="geometry"/></mxCell></UserObject><mxCell id="5JMBHkiXRSv9p0aSp2tF-19" value="" style="edgeStyle=none;html=1;exitX=0.604;exitY=1.058;exitDx=0;exitDy=0;exitPerimeter=0;" edge="1" parent="1" source="5JMBHkiXRSv9p0aSp2tF-15" target="5JMBHkiXRSv9p0aSp2tF-18"><mxGeometry relative="1" as="geometry"/></mxCell><mxCell id="5JMBHkiXRSv9p0aSp2tF-22" style="edgeStyle=none;html=1;exitX=0.663;exitY=1.058;exitDx=0;exitDy=0;entryX=0.347;entryY=-0.005;entryDx=0;entryDy=0;entryPerimeter=0;exitPerimeter=0;" edge="1" parent="1" source="5JMBHkiXRSv9p0aSp2tF-15" target="5JMBHkiXRSv9p0aSp2tF-20"><mxGeometry relative="1" as="geometry"/></mxCell><mxCell id="5JMBHkiXRSv9p0aSp2tF-15" value="URGENT HPB MDT Discussion&amp;nbsp;" style="whiteSpace=wrap;html=1;fillColor=#ffe6cc;strokeColor=#d79b00;fontStyle=1;shadow=1;" vertex="1" parent="1"><mxGeometry x="-20" y="270" width="132.5" height="80" as="geometry"/></mxCell><mxCell id="5JMBHkiXRSv9p0aSp2tF-18" value="Surgery" style="ellipse;whiteSpace=wrap;html=1;fillColor=#ffe6cc;strokeColor=#d79b00;fontStyle=1;shadow=1;" vertex="1" parent="1"><mxGeometry x="-40" y="450" width="110" height="110" as="geometry"/></mxCell><mxCell id="5JMBHkiXRSv9p0aSp2tF-20" value="EUS + Aspiration +/- Contrast : Then rediscuss in HPB MDT" style="ellipse;whiteSpace=wrap;html=1;fillColor=#ffe6cc;strokeColor=#d79b00;fontStyle=1;shadow=1;" vertex="1" parent="1"><mxGeometry x="90" y="440" width="112.5" height="110" as="geometry"/></mxCell><mxCell id="5JMBHkiXRSv9p0aSp2tF-26" value="" style="edgeStyle=none;shape=flexArrow;html=1;fontSize=10;fillColor=#b1ddf0;strokeColor=#10739e;" edge="1" parent="1" source="5JMBHkiXRSv9p0aSp2tF-23" target="5JMBHkiXRSv9p0aSp2tF-25"><mxGeometry relative="1" as="geometry"/></mxCell><mxCell id="5JMBHkiXRSv9p0aSp2tF-23" value="MRI or pancreatic CT at 6 months to assess stability and place on virtual pancreatic cyst clinic waiting list * &lt;font style=&quot;font-size: 10px; font-weight: normal;&quot;&gt;*At&lt;span style=&quot;&quot;&gt;&#9;&lt;/span&gt;point&lt;span style=&quot;&quot;&gt;&#9;&lt;/span&gt;of&lt;span style=&quot;&quot;&gt;&#9;&lt;/span&gt;placement&lt;span style=&quot;&quot;&gt;&#9;&lt;/span&gt;on&lt;span style=&quot;&quot;&gt;&#9;&lt;/span&gt;virtual&lt;span style=&quot;&quot;&gt;&#9;&lt;/span&gt;cyst&lt;span style=&quot;&quot;&gt;&#9;&lt;/span&gt;waiting&lt;span style=&quot;&quot;&gt;&#9;&lt;/span&gt;list&lt;span style=&quot;&quot;&gt;&#9;&lt;/span&gt;patients&lt;span style=&quot;&quot;&gt;&#9;&lt;/span&gt;to&lt;span style=&quot;&quot;&gt;&#9;&lt;/span&gt;be&lt;span style=&quot;&quot;&gt;&#9;&lt;/span&gt;offered&lt;span style=&quot;&quot;&gt;&#9;&lt;/span&gt;OPC&lt;span style=&quot;&quot;&gt;&#9;&lt;/span&gt;review&lt;/font&gt;&lt;span style=&quot;&quot;&gt;&#9;&lt;/span&gt;" style="whiteSpace=wrap;html=1;fillColor=#dae8fc;strokeColor=#6c8ebf;fontStyle=1;shadow=1;" vertex="1" parent="1"><mxGeometry x="220" y="560" width="320" height="90" as="geometry"/></mxCell><mxCell id="5JMBHkiXRSv9p0aSp2tF-27" style="edgeStyle=none;shape=flexArrow;html=1;entryX=0.436;entryY=0.982;entryDx=0;entryDy=0;entryPerimeter=0;fontSize=10;fillColor=#b1ddf0;strokeColor=#10739e;" edge="1" parent="1" source="5JMBHkiXRSv9p0aSp2tF-25" target="5JMBHkiXRSv9p0aSp2tF-20"><mxGeometry relative="1" as="geometry"><Array as="points"><mxPoint x="180" y="700"/></Array></mxGeometry></mxCell><mxCell id="5JMBHkiXRSv9p0aSp2tF-28" value="YES" style="edgeLabel;html=1;align=center;verticalAlign=middle;resizable=0;points=[];fontSize=10;" vertex="1" connectable="0" parent="5JMBHkiXRSv9p0aSp2tF-27"><mxGeometry x="0.0644" relative="1" as="geometry"><mxPoint as="offset"/></mxGeometry></mxCell><mxCell id="5JMBHkiXRSv9p0aSp2tF-30" style="edgeStyle=none;shape=flexArrow;html=1;entryX=0.5;entryY=0;entryDx=0;entryDy=0;fontSize=10;fillColor=#b1ddf0;strokeColor=#10739e;" edge="1" parent="1" source="5JMBHkiXRSv9p0aSp2tF-25" target="5JMBHkiXRSv9p0aSp2tF-29"><mxGeometry relative="1" as="geometry"/></mxCell><mxCell id="5JMBHkiXRSv9p0aSp2tF-31" value="NO" style="edgeLabel;html=1;align=center;verticalAlign=middle;resizable=0;points=[];fontSize=10;" vertex="1" connectable="0" parent="5JMBHkiXRSv9p0aSp2tF-30"><mxGeometry x="-0.3429" relative="1" as="geometry"><mxPoint as="offset"/></mxGeometry></mxCell><mxCell id="5JMBHkiXRSv9p0aSp2tF-25" value="Cyst growth or other worrisome feature at 6 /12?" style="rhombus;whiteSpace=wrap;html=1;fillColor=#dae8fc;strokeColor=#6c8ebf;fontStyle=1;shadow=1;" vertex="1" parent="1"><mxGeometry x="307.5" y="700" width="152.5" height="140" as="geometry"/></mxCell><mxCell id="5JMBHkiXRSv9p0aSp2tF-39" style="edgeStyle=none;html=1;fontSize=10;entryX=0.5;entryY=0;entryDx=0;entryDy=0;" edge="1" parent="1" source="5JMBHkiXRSv9p0aSp2tF-29"><mxGeometry relative="1" as="geometry"><mxPoint x="262.5" y="1010" as="targetPoint"/></mxGeometry></mxCell><mxCell id="5JMBHkiXRSv9p0aSp2tF-40" style="edgeStyle=none;html=1;fontSize=10;entryX=0.75;entryY=0;entryDx=0;entryDy=0;" edge="1" parent="1" source="5JMBHkiXRSv9p0aSp2tF-29"><mxGeometry relative="1" as="geometry"><mxPoint x="90" y="1010" as="targetPoint"/></mxGeometry></mxCell><mxCell id="5JMBHkiXRSv9p0aSp2tF-41" style="edgeStyle=none;html=1;entryX=0.5;entryY=0;entryDx=0;entryDy=0;fontSize=10;" edge="1" parent="1" source="5JMBHkiXRSv9p0aSp2tF-29"><mxGeometry relative="1" as="geometry"><mxPoint x="490" y="1000" as="targetPoint"/></mxGeometry></mxCell><mxCell id="5JMBHkiXRSv9p0aSp2tF-42" style="edgeStyle=none;html=1;entryX=0.5;entryY=0;entryDx=0;entryDy=0;fontSize=10;" edge="1" parent="1" source="5JMBHkiXRSv9p0aSp2tF-29"><mxGeometry relative="1" as="geometry"><mxPoint x="710" y="1000" as="targetPoint"/></mxGeometry></mxCell><mxCell id="5JMBHkiXRSv9p0aSp2tF-29" value="Enter surveillance&amp;nbsp;&amp;nbsp;" style="whiteSpace=wrap;html=1;fillColor=#dae8fc;strokeColor=#6c8ebf;fontStyle=1;shadow=1;fontSize=10;" vertex="1" parent="1"><mxGeometry x="330" y="910" width="113.75" height="50" as="geometry"/></mxCell><mxCell id="5JMBHkiXRSv9p0aSp2tF-44" value="&amp;lt; 10mm&lt;br&gt;MRI/CT&amp;nbsp; in 2 Years **" style="rounded=1;whiteSpace=wrap;html=1;shadow=1;fontSize=10;fillColor=#fad7ac;strokeColor=#b46504;" vertex="1" parent="1"><mxGeometry x="21" y="1010" width="120" height="60" as="geometry"/></mxCell><mxCell id="5JMBHkiXRSv9p0aSp2tF-45" value="10-20 mm&lt;br&gt;MRI/CT Yearly for 2 years, then 2 Yearly if static.&amp;nbsp;" style="rounded=1;whiteSpace=wrap;html=1;shadow=1;fontSize=10;fillColor=#fad7ac;strokeColor=#b46504;" vertex="1" parent="1"><mxGeometry x="202.5" y="1010" width="120" height="60" as="geometry"/></mxCell><mxCell id="5JMBHkiXRSv9p0aSp2tF-46" value="20-30 mm&lt;br&gt;MRI/CT in 6&amp;nbsp; Monthly for 1 Year, then Yearly if static.**" style="rounded=1;whiteSpace=wrap;html=1;shadow=1;fontSize=10;fillColor=#fad7ac;strokeColor=#b46504;" vertex="1" parent="1"><mxGeometry x="435" y="1000" width="120" height="60" as="geometry"/></mxCell><mxCell id="5JMBHkiXRSv9p0aSp2tF-60" style="edgeStyle=none;html=1;entryX=1;entryY=0.5;entryDx=0;entryDy=0;fontSize=10;shape=flexArrow;fillColor=#b1ddf0;strokeColor=#10739e;" edge="1" parent="1" source="5JMBHkiXRSv9p0aSp2tF-47" target="5JMBHkiXRSv9p0aSp2tF-13"><mxGeometry relative="1" as="geometry"><Array as="points"><mxPoint x="720" y="450"/></Array></mxGeometry></mxCell><mxCell id="5JMBHkiXRSv9p0aSp2tF-47" value="&amp;gt; 30 mm&lt;br&gt;Alternate&amp;nbsp; EUS and&amp;nbsp;&lt;br&gt;MRI/CT every 6&amp;nbsp; Months.**" style="rounded=1;whiteSpace=wrap;html=1;shadow=1;fontSize=10;fillColor=#fad7ac;strokeColor=#b46504;" vertex="1" parent="1"><mxGeometry x="650" y="1000" width="120" height="60" as="geometry"/></mxCell><mxCell id="5JMBHkiXRSv9p0aSp2tF-55" value="**Cease&#9;or&#9;do&#9;not&#9;offer&#9;surveillance&#9;to&#9;patients&#9;&gt;75&#9;(head&#9;/neck&#9;lesion)&#9;or&#9;&gt;79&#9;(distal&#9;lesion.&#9;&#9;Otherwise&#9;continue&#9;surveillance until&#9;patient&#9;deemed&#9;not&#9;&#10;fit&#9;for&#9;potential&#9;resection." style="text;fontSize=12;verticalAlign=middle;strokeColor=#23445d;fillColor=#bac8d3;shadow=1;" vertex="1" parent="1"><mxGeometry x="-13.119999999999997" y="1110" width="800" height="30" as="geometry"/></mxCell></root></mxGraphModel></diagram></mxfile>